<?xml version="1.0" encoding="UTF-8" standalone="no"?>
<svg
   width="115.35mm"
   height="92.972328mm"
   viewBox="0 0 115.35 92.972332"
   version="1.1"
   id="svg933"
   sodipodi:docname="pinci-layout.svg"
   inkscape:version="1.1 (ce6663b3b7, 2021-05-25)"
   xmlns:inkscape="http://www.inkscape.org/namespaces/inkscape"
   xmlns:sodipodi="http://sodipodi.sourceforge.net/DTD/sodipodi-0.dtd"
   xmlns="http://www.w3.org/2000/svg"
   xmlns:svg="http://www.w3.org/2000/svg">
  <defs
     id="defs937" />
  <sodipodi:namedview
     id="namedview935"
     pagecolor="#ffffff"
     bordercolor="#666666"
     borderopacity="1.0"
     inkscape:pageshadow="2"
     inkscape:pageopacity="0.0"
     inkscape:pagecheckerboard="0"
     inkscape:document-units="mm"
     showgrid="false"
     inkscape:zoom="1.2007867"
     inkscape:cx="249.00341"
     inkscape:cy="99.518087"
     inkscape:window-width="1916"
     inkscape:window-height="1040"
     inkscape:window-x="1920"
     inkscape:window-y="18"
     inkscape:window-maximized="1"
     inkscape:current-layer="svg933"
     fit-margin-top="0"
     fit-margin-left="0"
     fit-margin-right="0"
     fit-margin-bottom="0" />
  <path
     id="Sketch001_w0000"
     d="m 90.175,25.175 v -17 h -18 v 17 h 18 v 17 17 h -18 v -17 -17 m 18,17 h -18"
     stroke="#000000"
     stroke-width="0.35 px"
     style="fill:none;fill-opacity:1;fill-rule:evenodd;stroke:#0000ff;stroke-width:0.35;stroke-miterlimit:4;stroke-dasharray:none" />
  <path
     id="Sketch001_w0001"
     d="m 72.175,22.675 v -17 h -18 v 17 h 18 v 17 17 h -18 v -17 -17 m 18,17 h -18"
     stroke="#000000"
     stroke-width="0.35 px"
     style="fill:none;fill-opacity:1;fill-rule:evenodd;stroke:#0000ff;stroke-width:0.35;stroke-miterlimit:4;stroke-dasharray:none" />
  <path
     id="Sketch001_w0002"
     d="m 36.175,34.175 v -17 h 18 v 17 h -18 v 17 h 18 v -17"
     stroke="#000000"
     stroke-width="0.35 px"
     style="fill:none;fill-opacity:1;fill-rule:evenodd;stroke:#0000ff;stroke-width:0.35;stroke-miterlimit:4;stroke-dasharray:none" />
  <path
     id="Sketch001_w0002-3"
     d="m 36.175,17.175 v -17 h 18 v 17 h -18 v 17 h 18 v -17"
     stroke="#000000"
     stroke-width="0.35 px"
     style="fill:none;fill-opacity:1;fill-rule:evenodd;stroke:#0000ff;stroke-width:0.35;stroke-miterlimit:4;stroke-dasharray:none" />
  <path
     id="Sketch001_w0003"
     d="m 36.175,24.175 v -17 h -18 v 17 h 18 v 17 17 h -18 v -17 -17 m 18,17 h -18"
     stroke="#000000"
     stroke-width="0.35 px"
     style="fill:none;fill-opacity:1;fill-rule:evenodd;stroke:#0000ff;stroke-width:0.35;stroke-miterlimit:4;stroke-dasharray:none" />
  <path
     id="Sketch001_w0004"
     d="m 18.175,36.175 v -17 h -18 v 17 h 18 v 17 17 h -18 v -17 -17 m 18,17 h -18"
     stroke="#000000"
     stroke-width="0.35 px"
     style="fill:none;fill-opacity:1;fill-rule:evenodd;stroke:#0000ff;stroke-width:0.35;stroke-miterlimit:4;stroke-dasharray:none" />
  <path
     id="Sketch001_w0005"
     d="M 109.92852,79.239953 99.579573,92.72696 85.299213,81.769254 68.669382,74.880952 75.175,59.175 91.804832,66.063302 85.299213,81.769254 95.648158,68.282247 109.92852,79.239953"
     stroke="#000000"
     stroke-width="0.35 px"
     style="fill:none;fill-opacity:1;fill-rule:evenodd;stroke:#0000ff;stroke-width:0.35;stroke-miterlimit:4;stroke-dasharray:none" />
  <path
     id="Sketch001_w0006"
     d="m 1.175,23.5952 v 43.579801 a 2,2 0 0 0 2,1.999999 q 67.353742,0 93.046586,19.714813 A 4,4 0 0 0 101.83,88.1514 L 113.10853,73.452996 A 10,10 0 0 0 115.175,67.3654 V 3.175 a 2,2 0 0 0 -2,-2 H 66.175001 a 5,5 0 0 0 -10e-7,0 q -57.48149,0 -64.39693,19"
     stroke="#000000"
     stroke-width="0.35 px"
     style="fill:none;fill-opacity:1;fill-rule:evenodd;stroke:#ff00ff;stroke-width:0.35;stroke-miterlimit:4;stroke-dasharray:none" />
</svg>
