<?xml version="1.0"?>
<!DOCTYPE svg PUBLIC "-//W3C//DTD SVG 1.1//EN" "http://www.w3.org/Graphics/SVG/1.1/DTD/svg11.dtd">
<svg width="114.00000000000001mm" height="88.54068635743324mm" viewBox="-0.000000 -0.000000 114.000000 88.540686" xmlns="http://www.w3.org/2000/svg" version="1.1">
<g id="Sketch" transform="scale(1,-1)">
<path id="Sketch_w0000"  d="M 1.99999998215132 0.0 A 2 2 0 0 1 0 -2L 0.0 -66.19038162145544 A 10 10 0 0 1 2.06647 -72.278L 13.344972940594712 -86.97643156455783 A 4 4 0 0 1 18.9534 -87.7148Q 44.646258283416806 -67.99999999999906 111.99999808482455 -67.99999999999906 A 2 2 0 0 1 114 -66L 114.00000000000001 -22.420230695497647 A 10 10 0 0 1 113.397 -19Q 106.48148097906551 -1.4862023760646346e-14 49.0 -7.831214223988557e-16 A 5.0 5.0 0 0 0 48.999999879654425 0.0 L 1.99999998215132 0.0 " stroke="#000000" stroke-width="0.35 px" style="stroke-width:0.35;stroke-miterlimit:4;stroke-dasharray:none;fill:none;fill-opacity:1;fill-rule: evenodd"/>
<title>b'Sketch'</title>
</g>
</svg>